<?xml version="1.0" encoding="UTF-8"?><svg xmlns="http://www.w3.org/2000/svg" xmlns:xlink="http://www.w3.org/1999/xlink" fill-opacity="1" color-rendering="auto" color-interpolation="auto" text-rendering="auto" stroke="black" stroke-linecap="square" width="1003" stroke-miterlimit="10" shape-rendering="auto" stroke-opacity="1" fill="black" stroke-dasharray="none" font-weight="normal" stroke-width="1" height="382" font-family="'Dialog'" font-style="normal" stroke-linejoin="miter" font-size="12px" stroke-dashoffset="0" image-rendering="auto">
  <!--Generated by ySVG 2.5-->
  <defs id="genericDefs"/>
  <g>
    <defs id="defs1">
      <clipPath clipPathUnits="userSpaceOnUse" id="clipPath1">
        <path d="M0 0 L1003 0 L1003 382 L0 382 L0 0 Z"/>
      </clipPath>
      <clipPath clipPathUnits="userSpaceOnUse" id="clipPath2">
        <path d="M351 115 L1354 115 L1354 497 L351 497 L351 115 Z"/>
      </clipPath>
    </defs>
    <g fill="white" text-rendering="geometricPrecision" shape-rendering="geometricPrecision" transform="translate(-351,-115)" stroke="white">
      <rect x="351" width="1003" height="382" y="115" clip-path="url(#clipPath2)" stroke="none"/>
    </g>
    <g fill="rgb(255,204,0)" text-rendering="geometricPrecision" shape-rendering="geometricPrecision" transform="matrix(1,0,0,1,-351,-115)" stroke="rgb(255,204,0)">
      <rect x="366" width="95" height="30" y="335" clip-path="url(#clipPath2)" stroke="none"/>
    </g>
    <g text-rendering="geometricPrecision" stroke-miterlimit="1.45" shape-rendering="geometricPrecision" transform="matrix(1,0,0,1,-351,-115)" stroke-linecap="butt">
      <rect fill="none" x="366" width="95" height="30" y="335" clip-path="url(#clipPath2)"/>
      <text x="375.7777" xml:space="preserve" y="354.656" clip-path="url(#clipPath2)" font-family="sans-serif" stroke="none">Declaration n</text>
    </g>
    <g fill="rgb(255,204,0)" text-rendering="geometricPrecision" shape-rendering="geometricPrecision" transform="matrix(1,0,0,1,-351,-115)" stroke="rgb(255,204,0)">
      <rect x="644" width="124" height="30" y="269" clip-path="url(#clipPath2)" stroke="none"/>
    </g>
    <g text-rendering="geometricPrecision" stroke-miterlimit="1.45" shape-rendering="geometricPrecision" transform="matrix(1,0,0,1,-351,-115)" stroke-linecap="butt">
      <rect fill="none" x="644" width="124" height="30" y="269" clip-path="url(#clipPath2)"/>
      <text x="663.5857" xml:space="preserve" y="280.484" clip-path="url(#clipPath2)" font-family="sans-serif" stroke="none">Interim Model/</text>
      <text x="668.2838" xml:space="preserve" y="296.8281" clip-path="url(#clipPath2)" font-family="sans-serif" stroke="none">Symbol Table</text>
    </g>
    <g fill="rgb(255,204,0)" text-rendering="geometricPrecision" shape-rendering="geometricPrecision" transform="matrix(1,0,0,1,-351,-115)" stroke="rgb(255,204,0)">
      <rect x="644" width="118" height="30" y="130" clip-path="url(#clipPath2)" stroke="none"/>
    </g>
    <g text-rendering="geometricPrecision" stroke-miterlimit="1.45" shape-rendering="geometricPrecision" transform="matrix(1,0,0,1,-351,-115)" stroke-linecap="butt">
      <rect fill="none" x="644" width="118" height="30" y="130" clip-path="url(#clipPath2)"/>
      <text x="658.9717" xml:space="preserve" y="149.656" clip-path="url(#clipPath2)" font-family="sans-serif" stroke="none">Configuration 1</text>
    </g>
    <g fill="rgb(255,204,0)" text-rendering="geometricPrecision" shape-rendering="geometricPrecision" transform="matrix(1,0,0,1,-351,-115)" stroke="rgb(255,204,0)">
      <rect x="366" width="95" height="30" y="269" clip-path="url(#clipPath2)" stroke="none"/>
    </g>
    <g text-rendering="geometricPrecision" stroke-miterlimit="1.45" shape-rendering="geometricPrecision" transform="matrix(1,0,0,1,-351,-115)" stroke-linecap="butt">
      <rect fill="none" x="366" width="95" height="30" y="269" clip-path="url(#clipPath2)"/>
      <text x="376.0537" xml:space="preserve" y="288.656" clip-path="url(#clipPath2)" font-family="sans-serif" stroke="none">Declaration 1</text>
    </g>
    <g fill="rgb(255,204,0)" text-rendering="geometricPrecision" shape-rendering="geometricPrecision" transform="matrix(1,0,0,1,-351,-115)" stroke="rgb(255,204,0)">
      <rect x="644" width="118" height="30" y="196" clip-path="url(#clipPath2)" stroke="none"/>
    </g>
    <g text-rendering="geometricPrecision" stroke-miterlimit="1.45" shape-rendering="geometricPrecision" transform="matrix(1,0,0,1,-351,-115)" stroke-linecap="butt">
      <rect fill="none" x="644" width="118" height="30" y="196" clip-path="url(#clipPath2)"/>
      <text x="656.7937" xml:space="preserve" y="215.656" clip-path="url(#clipPath2)" font-family="sans-serif" stroke="none">Configuration m</text>
    </g>
    <g fill="rgb(255,204,0)" text-rendering="geometricPrecision" shape-rendering="geometricPrecision" transform="matrix(1,0,0,1,-351,-115)" stroke="rgb(255,204,0)">
      <rect x="955" width="124" height="30" y="269" clip-path="url(#clipPath2)" stroke="none"/>
    </g>
    <g text-rendering="geometricPrecision" stroke-miterlimit="1.45" shape-rendering="geometricPrecision" transform="matrix(1,0,0,1,-351,-115)" stroke-linecap="butt">
      <rect fill="none" x="955" width="124" height="30" y="269" clip-path="url(#clipPath2)"/>
      <text x="974.5857" xml:space="preserve" y="280.484" clip-path="url(#clipPath2)" font-family="sans-serif" stroke="none">Interim Model/</text>
      <text x="979.2838" xml:space="preserve" y="296.8281" clip-path="url(#clipPath2)" font-family="sans-serif" stroke="none">Symbol Table</text>
    </g>
    <g fill="rgb(255,204,0)" text-rendering="geometricPrecision" shape-rendering="geometricPrecision" transform="matrix(1,0,0,1,-351,-115)" stroke="rgb(255,204,0)">
      <circle r="15" clip-path="url(#clipPath2)" cx="549" cy="284" stroke="none"/>
    </g>
    <g text-rendering="geometricPrecision" stroke-miterlimit="1.45" shape-rendering="geometricPrecision" transform="matrix(1,0,0,1,-351,-115)" stroke-linecap="butt">
      <circle fill="none" r="15" clip-path="url(#clipPath2)" cx="549" cy="284"/>
      <text x="474.8035" xml:space="preserve" y="216.1399" clip-path="url(#clipPath2)" font-family="sans-serif" stroke="none">Declaration Interim Model</text>
      <text x="498.9597" xml:space="preserve" y="232.484" clip-path="url(#clipPath2)" font-family="sans-serif" stroke="none">and Symbol Table</text>
      <text x="505.5237" xml:space="preserve" y="248.8281" clip-path="url(#clipPath2)" font-family="sans-serif" stroke="none">Creation Visitor</text>
    </g>
    <g fill="rgb(255,204,0)" text-rendering="geometricPrecision" shape-rendering="geometricPrecision" transform="matrix(1,0,0,1,-351,-115)" stroke="rgb(255,204,0)">
      <circle r="15" clip-path="url(#clipPath2)" cx="861.5" cy="284" stroke="none"/>
    </g>
    <g text-rendering="geometricPrecision" stroke-miterlimit="1.45" shape-rendering="geometricPrecision" transform="matrix(1,0,0,1,-351,-115)" stroke-linecap="butt">
      <circle fill="none" r="15" clip-path="url(#clipPath2)" cx="861.5" cy="284"/>
      <text x="780.7214" xml:space="preserve" y="325.484" clip-path="url(#clipPath2)" font-family="sans-serif" stroke="none">Configuration Interim Model</text>
      <text x="811.4597" xml:space="preserve" y="341.8281" clip-path="url(#clipPath2)" font-family="sans-serif" stroke="none">and Smybol Table</text>
      <text x="818.0237" xml:space="preserve" y="358.1722" clip-path="url(#clipPath2)" font-family="sans-serif" stroke="none">Creation Visitor</text>
    </g>
    <g fill="rgb(255,204,0)" text-rendering="geometricPrecision" shape-rendering="geometricPrecision" transform="matrix(1,0,0,1,-351,-115)" stroke="rgb(255,204,0)">
      <rect x="1221" width="118" height="30" y="269" clip-path="url(#clipPath2)" stroke="none"/>
    </g>
    <g text-rendering="geometricPrecision" stroke-miterlimit="1.45" shape-rendering="geometricPrecision" transform="matrix(1,0,0,1,-351,-115)" stroke-linecap="butt">
      <rect fill="none" x="1221" width="118" height="30" y="269" clip-path="url(#clipPath2)"/>
      <text x="1235.4557" xml:space="preserve" y="288.656" clip-path="url(#clipPath2)" font-family="sans-serif" stroke="none">Resolved Model</text>
    </g>
    <g fill="rgb(255,204,0)" text-rendering="geometricPrecision" shape-rendering="geometricPrecision" transform="matrix(1,0,0,1,-351,-115)" stroke="rgb(255,204,0)">
      <circle r="15" clip-path="url(#clipPath2)" cx="1150" cy="284" stroke="none"/>
    </g>
    <g text-rendering="geometricPrecision" stroke-miterlimit="1.45" shape-rendering="geometricPrecision" transform="matrix(1,0,0,1,-351,-115)" stroke-linecap="butt">
      <circle fill="none" r="15" clip-path="url(#clipPath2)" cx="1150" cy="284"/>
      <text x="1105.0477" xml:space="preserve" y="331.484" clip-path="url(#clipPath2)" font-family="sans-serif" stroke="none">Compute Result</text>
      <text x="1132.3059" xml:space="preserve" y="347.8281" clip-path="url(#clipPath2)" font-family="sans-serif" stroke="none">Model</text>
    </g>
    <g fill="rgb(255,204,0)" text-rendering="geometricPrecision" shape-rendering="geometricPrecision" transform="matrix(1,0,0,1,-351,-115)" stroke="rgb(255,204,0)">
      <path d="M887.5 402 L1131.5 402 L1131.5 417 L1146.5 417 L1146.5 482 L887.5 482 Z" stroke="none" clip-path="url(#clipPath2)"/>
      <path fill="white" d="M1131.5 402 L1131.5 417 L1146.5 417 Z" clip-path="url(#clipPath2)" fill-rule="evenodd" stroke="none"/>
    </g>
    <g text-rendering="geometricPrecision" stroke-miterlimit="1.45" shape-rendering="geometricPrecision" transform="matrix(1,0,0,1,-351,-115)" stroke-linecap="butt">
      <path fill="none" d="M887.5 402 L1131.5 402 L1131.5 417 L1146.5 417 L1146.5 482 L887.5 482 Z" clip-path="url(#clipPath2)"/>
      <path fill="none" d="M1131.5 402 L1131.5 417 L1146.5 417 Z" clip-path="url(#clipPath2)" fill-rule="evenodd"/>
      <text x="895.4331" xml:space="preserve" y="430.3119" clip-path="url(#clipPath2)" font-family="sans-serif" stroke="none">Technically the interim model/symbol table</text>
      <text x="902.6392" xml:space="preserve" y="446.656" clip-path="url(#clipPath2)" font-family="sans-serif" stroke="none">and the resolved model can be the same</text>
      <text x="975.4017" xml:space="preserve" y="463.0002" clip-path="url(#clipPath2)" font-family="sans-serif" stroke="none">data structure.</text>
      <path fill="none" d="M461 284 L526 284" clip-path="url(#clipPath2)"/>
      <path d="M534 284 L522 279 L525 284 L522 289 Z" clip-path="url(#clipPath2)" stroke="none"/>
      <path fill="none" d="M460.9844 350 L517 350 L538.9657 304.6957" clip-path="url(#clipPath2)"/>
      <path d="M542.4559 297.4972 L532.7215 306.1136 L538.5294 305.5955 L541.7197 310.4763 Z" clip-path="url(#clipPath2)" stroke="none"/>
      <path fill="none" d="M564 284 L636 284" clip-path="url(#clipPath2)"/>
      <path d="M644 284 L632 279 L635 284 L632 289 Z" clip-path="url(#clipPath2)" stroke="none"/>
      <path fill="none" d="M768 284 L838.5 284" clip-path="url(#clipPath2)"/>
      <path d="M846.5 284 L834.5 279 L837.5 284 L834.5 289 Z" clip-path="url(#clipPath2)" stroke="none"/>
      <path fill="none" d="M762 211 L807 211 L847.7404 265.5698" clip-path="url(#clipPath2)"/>
      <path d="M852.5264 271.9803 L849.354 259.3733 L847.1422 264.7685 L841.3409 265.3557 Z" clip-path="url(#clipPath2)" stroke="none"/>
      <path fill="none" d="M762 145 L813 145 L853.9228 262.284" clip-path="url(#clipPath2)"/>
      <path d="M856.5583 269.8374 L857.3259 256.86 L853.5933 261.3398 L847.8842 260.1545 Z" clip-path="url(#clipPath2)" stroke="none"/>
      <path fill="none" d="M876.5 284 L947 284" clip-path="url(#clipPath2)"/>
      <path d="M955 284 L943 279 L946 284 L943 289 Z" clip-path="url(#clipPath2)" stroke="none"/>
      <path fill="none" d="M1079 284 L1127 284" clip-path="url(#clipPath2)"/>
      <path d="M1135 284 L1123 279 L1126 284 L1123 289 Z" clip-path="url(#clipPath2)" stroke="none"/>
      <path fill="none" d="M1165 284 L1213 284" clip-path="url(#clipPath2)"/>
      <path d="M1221 284 L1209 279 L1212 284 L1209 289 Z" clip-path="url(#clipPath2)" stroke="none"/>
      <path fill="none" stroke-dasharray="6,2" d="M887.5018 442 L784 442 L713.4051 299" clip-path="url(#clipPath2)"/>
      <path fill="none" stroke-dasharray="6,2" d="M1017 401.9985 L1017 299" clip-path="url(#clipPath2)"/>
      <path fill="none" stroke-dasharray="6,2" d="M1146.4939 442 L1208 442 L1273.1646 299" clip-path="url(#clipPath2)"/>
    </g>
  </g>
</svg>
