<?xml version="1.0" encoding="UTF-8"?><svg xmlns="http://www.w3.org/2000/svg" xmlns:xlink="http://www.w3.org/1999/xlink" fill-opacity="1" color-rendering="auto" color-interpolation="auto" text-rendering="auto" stroke="black" stroke-linecap="square" width="1296" stroke-miterlimit="10" shape-rendering="auto" stroke-opacity="1" fill="black" stroke-dasharray="none" font-weight="normal" stroke-width="1" height="614" font-family="'Dialog'" font-style="normal" stroke-linejoin="miter" font-size="12px" stroke-dashoffset="0" image-rendering="auto">
  <!--Generated by ySVG 2.6-->
  <defs id="genericDefs"/>
  <g>
    <defs id="defs1">
      <clipPath clipPathUnits="userSpaceOnUse" id="clipPath1">
        <path d="M0 0 L1296 0 L1296 614 L0 614 L0 0 Z"/>
      </clipPath>
      <clipPath clipPathUnits="userSpaceOnUse" id="clipPath2">
        <path d="M249 228 L1545 228 L1545 842 L249 842 L249 228 Z"/>
      </clipPath>
      <clipPath clipPathUnits="userSpaceOnUse" id="clipPath3">
        <path d="M731 313 L731 382 L850 382 L850 313 Z"/>
      </clipPath>
      <clipPath clipPathUnits="userSpaceOnUse" id="clipPath4">
        <path d="M731 440 L731 471 L850 471 L850 440 Z"/>
      </clipPath>
      <clipPath clipPathUnits="userSpaceOnUse" id="clipPath5">
        <path d="M402 440 L402 495 L530 495 L530 440 Z"/>
      </clipPath>
      <clipPath clipPathUnits="userSpaceOnUse" id="clipPath6">
        <path d="M380 571 L380 637 L552 637 L552 571 Z"/>
      </clipPath>
      <clipPath clipPathUnits="userSpaceOnUse" id="clipPath7">
        <path d="M348 667 L348 695 L448 695 L448 667 Z"/>
      </clipPath>
      <clipPath clipPathUnits="userSpaceOnUse" id="clipPath8">
        <path d="M478 667 L478 722 L631 722 L631 667 Z"/>
      </clipPath>
      <clipPath clipPathUnits="userSpaceOnUse" id="clipPath9">
        <path d="M565 440 L565 468 L665 468 L665 440 Z"/>
      </clipPath>
      <clipPath clipPathUnits="userSpaceOnUse" id="clipPath10">
        <path d="M267 440 L267 495 L367 495 L367 440 Z"/>
      </clipPath>
      <clipPath clipPathUnits="userSpaceOnUse" id="clipPath11">
        <path d="M1140 506 L1140 534 L1259 534 L1259 506 Z"/>
      </clipPath>
      <clipPath clipPathUnits="userSpaceOnUse" id="clipPath12">
        <path d="M727 506 L727 572 L855 572 L855 506 Z"/>
      </clipPath>
      <clipPath clipPathUnits="userSpaceOnUse" id="clipPath13">
        <path d="M525 506 L525 561 L697 561 L697 506 Z"/>
      </clipPath>
      <clipPath clipPathUnits="userSpaceOnUse" id="clipPath14">
        <path d="M957 590 L957 618 L1110 618 L1110 590 Z"/>
      </clipPath>
      <clipPath clipPathUnits="userSpaceOnUse" id="clipPath15">
        <path d="M817 590 L817 618 L930 618 L930 590 Z"/>
      </clipPath>
      <clipPath clipPathUnits="userSpaceOnUse" id="clipPath16">
        <path d="M478 758 L478 786 L631 786 L631 758 Z"/>
      </clipPath>
      <clipPath clipPathUnits="userSpaceOnUse" id="clipPath17">
        <path d="M1114 631 L1114 686 L1286 686 L1286 631 Z"/>
      </clipPath>
      <clipPath clipPathUnits="userSpaceOnUse" id="clipPath18">
        <path d="M264 758 L264 827 L448 827 L448 758 Z"/>
      </clipPath>
      <clipPath clipPathUnits="userSpaceOnUse" id="clipPath19">
        <path d="M1095 303 L1095 331 L1195 331 L1195 303 Z"/>
      </clipPath>
      <clipPath clipPathUnits="userSpaceOnUse" id="clipPath20">
        <path d="M1430 506 L1430 534 L1530 534 L1530 506 Z"/>
      </clipPath>
    </defs>
    <g fill="white" text-rendering="geometricPrecision" shape-rendering="geometricPrecision" transform="translate(-249,-228)" stroke="white">
      <rect x="249" width="1296" height="614" y="228" clip-path="url(#clipPath2)" stroke="none"/>
    </g>
    <g fill="rgb(255,204,0)" text-rendering="geometricPrecision" shape-rendering="geometricPrecision" transform="matrix(1,0,0,1,-249,-228)" stroke="rgb(255,204,0)">
      <rect x="732" width="117" height="67" y="314" clip-path="url(#clipPath2)" stroke="none"/>
      <rect x="731" y="313" clip-path="url(#clipPath2)" fill="yellow" width="1" height="69" stroke="none"/>
      <rect x="732" y="313" clip-path="url(#clipPath2)" fill="yellow" width="117" height="1" stroke="none"/>
      <rect x="732" y="381" clip-path="url(#clipPath2)" fill="rgb(178,142,0)" width="118" height="1" stroke="none"/>
      <rect x="849" y="313" clip-path="url(#clipPath2)" fill="rgb(178,142,0)" width="1" height="68" stroke="none"/>
    </g>
    <g font-size="13px" stroke-linecap="butt" transform="matrix(1,0,0,1,-249,-228)" text-rendering="geometricPrecision" font-family="sans-serif" shape-rendering="geometricPrecision" font-weight="bold" stroke-miterlimit="1.45">
      <text x="767.2165" xml:space="preserve" y="332.397" clip-path="url(#clipPath3)" stroke="none">Symbol</text>
    </g>
    <g text-rendering="geometricPrecision" shape-rendering="geometricPrecision" transform="matrix(1,0,0,1,-249,-228)">
      <line y2="341" fill="none" x1="732" clip-path="url(#clipPath3)" x2="849" y1="341"/>
      <text stroke-linecap="butt" x="736.5" y="359.0341" clip-path="url(#clipPath3)" font-family="sans-serif" stroke="none" stroke-miterlimit="1.45" xml:space="preserve">name : String</text>
      <line y2="367" fill="none" x1="732" clip-path="url(#clipPath3)" x2="849" y1="367"/>
      <rect x="732" y="441" clip-path="url(#clipPath2)" fill="rgb(255,204,0)" width="117" height="29" stroke="none"/>
      <rect x="731" y="440" clip-path="url(#clipPath2)" fill="yellow" width="1" height="31" stroke="none"/>
      <rect x="732" y="440" clip-path="url(#clipPath2)" fill="yellow" width="117" height="1" stroke="none"/>
      <rect x="732" y="470" clip-path="url(#clipPath2)" fill="rgb(178,142,0)" width="118" height="1" stroke="none"/>
      <rect x="849" y="440" clip-path="url(#clipPath2)" fill="rgb(178,142,0)" width="1" height="30" stroke="none"/>
    </g>
    <g font-size="13px" stroke-linecap="butt" transform="matrix(1,0,0,1,-249,-228)" text-rendering="geometricPrecision" font-family="sans-serif" shape-rendering="geometricPrecision" font-weight="bold" stroke-miterlimit="1.45">
      <text x="744.2" xml:space="preserve" y="458.897" clip-path="url(#clipPath4)" stroke="none">ScopedSymbol</text>
    </g>
    <g fill="rgb(255,204,0)" text-rendering="geometricPrecision" shape-rendering="geometricPrecision" transform="matrix(1,0,0,1,-249,-228)" stroke="rgb(255,204,0)">
      <rect x="403" width="126" height="53" y="441" clip-path="url(#clipPath2)" stroke="none"/>
      <rect x="402" y="440" clip-path="url(#clipPath2)" fill="yellow" width="1" height="55" stroke="none"/>
      <rect x="403" y="440" clip-path="url(#clipPath2)" fill="yellow" width="126" height="1" stroke="none"/>
      <rect x="403" y="494" clip-path="url(#clipPath2)" fill="rgb(178,142,0)" width="127" height="1" stroke="none"/>
      <rect x="529" y="440" clip-path="url(#clipPath2)" fill="rgb(178,142,0)" width="1" height="54" stroke="none"/>
    </g>
    <g font-size="13px" stroke-linecap="butt" transform="matrix(1,0,0,1,-249,-228)" text-rendering="geometricPrecision" font-family="sans-serif" shape-rendering="geometricPrecision" font-weight="bold" stroke-miterlimit="1.45">
      <text x="422.684" xml:space="preserve" y="458.897" clip-path="url(#clipPath5)" stroke="none">TypedSymbol</text>
    </g>
    <g text-rendering="geometricPrecision" shape-rendering="geometricPrecision" transform="matrix(1,0,0,1,-249,-228)">
      <line y2="467" fill="none" x1="403" clip-path="url(#clipPath5)" x2="529" y1="467"/>
      <text stroke-linecap="butt" x="407" y="485.5341" clip-path="url(#clipPath5)" font-family="sans-serif" stroke="none" stroke-miterlimit="1.45" xml:space="preserve">attached_type : Type</text>
      <line y2="494" fill="none" x1="403" clip-path="url(#clipPath5)" x2="529" y1="494"/>
      <rect x="381" y="572" clip-path="url(#clipPath2)" fill="rgb(255,204,0)" width="170" height="64" stroke="none"/>
      <rect x="380" y="571" clip-path="url(#clipPath2)" fill="yellow" width="1" height="66" stroke="none"/>
      <rect x="381" y="571" clip-path="url(#clipPath2)" fill="yellow" width="170" height="1" stroke="none"/>
      <rect x="381" y="636" clip-path="url(#clipPath2)" fill="rgb(178,142,0)" width="171" height="1" stroke="none"/>
      <rect x="551" y="571" clip-path="url(#clipPath2)" fill="rgb(178,142,0)" width="1" height="65" stroke="none"/>
    </g>
    <g font-size="13px" stroke-linecap="butt" transform="matrix(1,0,0,1,-249,-228)" text-rendering="geometricPrecision" font-family="sans-serif" shape-rendering="geometricPrecision" font-weight="bold" stroke-miterlimit="1.45">
      <text x="428.2285" xml:space="preserve" y="589.897" clip-path="url(#clipPath6)" stroke="none">UnitSymbol</text>
    </g>
    <g text-rendering="geometricPrecision" shape-rendering="geometricPrecision" transform="matrix(1,0,0,1,-249,-228)">
      <line y2="598" fill="none" x1="381" clip-path="url(#clipPath6)" x2="551" y1="598"/>
      <text stroke-linecap="butt" x="385" y="616.5341" clip-path="url(#clipPath6)" font-family="sans-serif" stroke="none" stroke-miterlimit="1.45" xml:space="preserve">attached_unit : Unit</text>
      <text stroke-linecap="butt" x="385" y="632.8782" clip-path="url(#clipPath6)" font-family="sans-serif" stroke="none" stroke-miterlimit="1.45" xml:space="preserve">attached_description : String</text>
      <line y2="641" fill="none" x1="381" clip-path="url(#clipPath6)" x2="551" y1="641"/>
      <rect x="349" y="668" clip-path="url(#clipPath2)" fill="rgb(255,204,0)" width="98" height="26" stroke="none"/>
      <rect x="348" y="667" clip-path="url(#clipPath2)" fill="yellow" width="1" height="28" stroke="none"/>
      <rect x="349" y="667" clip-path="url(#clipPath2)" fill="yellow" width="98" height="1" stroke="none"/>
      <rect x="349" y="694" clip-path="url(#clipPath2)" fill="rgb(178,142,0)" width="99" height="1" stroke="none"/>
      <rect x="447" y="667" clip-path="url(#clipPath2)" fill="rgb(178,142,0)" width="1" height="27" stroke="none"/>
    </g>
    <g font-size="13px" stroke-linecap="butt" transform="matrix(1,0,0,1,-249,-228)" text-rendering="geometricPrecision" font-family="sans-serif" shape-rendering="geometricPrecision" font-weight="bold" stroke-miterlimit="1.45">
      <text x="353.0395" xml:space="preserve" y="685.897" clip-path="url(#clipPath7)" stroke="none">LiteralSymbol</text>
    </g>
    <g fill="rgb(255,204,0)" text-rendering="geometricPrecision" shape-rendering="geometricPrecision" transform="matrix(1,0,0,1,-249,-228)" stroke="rgb(255,204,0)">
      <rect x="479" width="151" height="53" y="668" clip-path="url(#clipPath2)" stroke="none"/>
      <rect x="478" y="667" clip-path="url(#clipPath2)" fill="yellow" width="1" height="55" stroke="none"/>
      <rect x="479" y="667" clip-path="url(#clipPath2)" fill="yellow" width="151" height="1" stroke="none"/>
      <rect x="479" y="721" clip-path="url(#clipPath2)" fill="rgb(178,142,0)" width="152" height="1" stroke="none"/>
      <rect x="630" y="667" clip-path="url(#clipPath2)" fill="rgb(178,142,0)" width="1" height="54" stroke="none"/>
    </g>
    <g font-size="13px" stroke-linecap="butt" transform="matrix(1,0,0,1,-249,-228)" text-rendering="geometricPrecision" font-family="sans-serif" shape-rendering="geometricPrecision" font-weight="bold" stroke-miterlimit="1.45">
      <text x="503.7675" xml:space="preserve" y="685.897" clip-path="url(#clipPath8)" stroke="none">VariableSymbol</text>
    </g>
    <g text-rendering="geometricPrecision" shape-rendering="geometricPrecision" transform="matrix(1,0,0,1,-249,-228)">
      <line y2="694" fill="none" x1="479" clip-path="url(#clipPath8)" x2="630" y1="694"/>
      <text stroke-linecap="butt" x="483" y="712.5341" clip-path="url(#clipPath8)" font-family="sans-serif" stroke="none" stroke-miterlimit="1.45" xml:space="preserve">is_tree : boolean = false</text>
      <line y2="721" fill="none" x1="479" clip-path="url(#clipPath8)" x2="630" y1="721"/>
      <rect x="566" y="441" clip-path="url(#clipPath2)" fill="rgb(255,204,0)" width="98" height="26" stroke="none"/>
      <rect x="565" y="440" clip-path="url(#clipPath2)" fill="yellow" width="1" height="28" stroke="none"/>
      <rect x="566" y="440" clip-path="url(#clipPath2)" fill="yellow" width="98" height="1" stroke="none"/>
      <rect x="566" y="467" clip-path="url(#clipPath2)" fill="rgb(178,142,0)" width="99" height="1" stroke="none"/>
      <rect x="664" y="440" clip-path="url(#clipPath2)" fill="rgb(178,142,0)" width="1" height="27" stroke="none"/>
    </g>
    <g font-size="13px" stroke-linecap="butt" transform="matrix(1,0,0,1,-249,-228)" text-rendering="geometricPrecision" font-family="sans-serif" shape-rendering="geometricPrecision" font-weight="bold" stroke-miterlimit="1.45">
      <text x="573.205" xml:space="preserve" y="458.897" clip-path="url(#clipPath9)" stroke="none">ArraySymbol</text>
    </g>
    <g fill="rgb(255,204,0)" text-rendering="geometricPrecision" shape-rendering="geometricPrecision" transform="matrix(1,0,0,1,-249,-228)" stroke="rgb(255,204,0)">
      <rect x="268" width="98" height="53" y="441" clip-path="url(#clipPath2)" stroke="none"/>
      <rect x="267" y="440" clip-path="url(#clipPath2)" fill="yellow" width="1" height="55" stroke="none"/>
      <rect x="268" y="440" clip-path="url(#clipPath2)" fill="yellow" width="98" height="1" stroke="none"/>
      <rect x="268" y="494" clip-path="url(#clipPath2)" fill="rgb(178,142,0)" width="99" height="1" stroke="none"/>
      <rect x="366" y="440" clip-path="url(#clipPath2)" fill="rgb(178,142,0)" width="1" height="54" stroke="none"/>
    </g>
    <g font-size="13px" stroke-linecap="butt" transform="matrix(1,0,0,1,-249,-228)" text-rendering="geometricPrecision" font-family="sans-serif" shape-rendering="geometricPrecision" font-weight="bold" stroke-miterlimit="1.45">
      <text x="274.6525" xml:space="preserve" y="458.897" clip-path="url(#clipPath10)" stroke="none">EnumSymbol</text>
    </g>
    <g text-rendering="geometricPrecision" shape-rendering="geometricPrecision" transform="matrix(1,0,0,1,-249,-228)">
      <line y2="467" fill="none" x1="268" clip-path="url(#clipPath10)" x2="366" y1="467"/>
      <text stroke-linecap="butt" x="272" y="485.5341" clip-path="url(#clipPath10)" font-family="sans-serif" stroke="none" stroke-miterlimit="1.45" xml:space="preserve">value : ???</text>
      <line y2="494" fill="none" x1="268" clip-path="url(#clipPath10)" x2="366" y1="494"/>
      <rect x="1141" y="507" clip-path="url(#clipPath2)" fill="rgb(255,204,0)" width="117" height="26" stroke="none"/>
      <rect x="1140" y="506" clip-path="url(#clipPath2)" fill="yellow" width="1" height="28" stroke="none"/>
      <rect x="1141" y="506" clip-path="url(#clipPath2)" fill="yellow" width="117" height="1" stroke="none"/>
      <rect x="1141" y="533" clip-path="url(#clipPath2)" fill="rgb(178,142,0)" width="118" height="1" stroke="none"/>
      <rect x="1258" y="506" clip-path="url(#clipPath2)" fill="rgb(178,142,0)" width="1" height="27" stroke="none"/>
    </g>
    <g font-size="13px" stroke-linecap="butt" transform="matrix(1,0,0,1,-249,-228)" text-rendering="geometricPrecision" font-family="sans-serif" shape-rendering="geometricPrecision" font-weight="bold" stroke-miterlimit="1.45">
      <text x="1150.7169" xml:space="preserve" y="524.897" clip-path="url(#clipPath11)" stroke="none">RoutineSymbol</text>
    </g>
    <g fill="rgb(255,204,0)" text-rendering="geometricPrecision" shape-rendering="geometricPrecision" transform="matrix(1,0,0,1,-249,-228)" stroke="rgb(255,204,0)">
      <rect x="728" width="126" height="64" y="507" clip-path="url(#clipPath2)" stroke="none"/>
      <rect x="727" y="506" clip-path="url(#clipPath2)" fill="yellow" width="1" height="66" stroke="none"/>
      <rect x="728" y="506" clip-path="url(#clipPath2)" fill="yellow" width="126" height="1" stroke="none"/>
      <rect x="728" y="571" clip-path="url(#clipPath2)" fill="rgb(178,142,0)" width="127" height="1" stroke="none"/>
      <rect x="854" y="506" clip-path="url(#clipPath2)" fill="rgb(178,142,0)" width="1" height="65" stroke="none"/>
    </g>
    <g font-size="13px" stroke-linecap="butt" transform="matrix(1,0,0,1,-249,-228)" text-rendering="geometricPrecision" font-family="sans-serif" shape-rendering="geometricPrecision" font-weight="bold" stroke-miterlimit="1.45">
      <text x="747.151" xml:space="preserve" y="524.897" clip-path="url(#clipPath12)" stroke="none">GroupSymbol</text>
    </g>
    <g text-rendering="geometricPrecision" shape-rendering="geometricPrecision" transform="matrix(1,0,0,1,-249,-228)">
      <line y2="533" fill="none" x1="728" clip-path="url(#clipPath12)" x2="854" y1="533"/>
      <text stroke-linecap="butt" x="732" y="551.5341" clip-path="url(#clipPath12)" font-family="sans-serif" stroke="none" stroke-miterlimit="1.45" xml:space="preserve">description : String</text>
      <text stroke-linecap="butt" x="732" y="567.8782" clip-path="url(#clipPath12)" font-family="sans-serif" stroke="none" stroke-miterlimit="1.45" xml:space="preserve">groupType : T</text>
      <line y2="576" fill="none" x1="728" clip-path="url(#clipPath12)" x2="854" y1="576"/>
      <rect x="526" y="507" clip-path="url(#clipPath2)" fill="rgb(255,204,0)" width="170" height="53" stroke="none"/>
      <rect x="525" y="506" clip-path="url(#clipPath2)" fill="yellow" width="1" height="55" stroke="none"/>
      <rect x="526" y="506" clip-path="url(#clipPath2)" fill="yellow" width="170" height="1" stroke="none"/>
      <rect x="526" y="560" clip-path="url(#clipPath2)" fill="rgb(178,142,0)" width="171" height="1" stroke="none"/>
      <rect x="696" y="506" clip-path="url(#clipPath2)" fill="rgb(178,142,0)" width="1" height="54" stroke="none"/>
    </g>
    <g font-size="13px" stroke-linecap="butt" transform="matrix(1,0,0,1,-249,-228)" text-rendering="geometricPrecision" font-family="sans-serif" shape-rendering="geometricPrecision" font-weight="bold" stroke-miterlimit="1.45">
      <text x="561.9965" xml:space="preserve" y="524.897" clip-path="url(#clipPath13)" stroke="none">FeatureSymbol</text>
    </g>
    <g text-rendering="geometricPrecision" shape-rendering="geometricPrecision" transform="matrix(1,0,0,1,-249,-228)">
      <line y2="533" fill="none" x1="526" clip-path="url(#clipPath13)" x2="696" y1="533"/>
      <text stroke-linecap="butt" x="530" y="551.5341" clip-path="url(#clipPath13)" font-family="sans-serif" stroke="none" stroke-miterlimit="1.45" xml:space="preserve">is_activated : boolean = false</text>
      <line y2="560" fill="none" x1="526" clip-path="url(#clipPath13)" x2="696" y1="560"/>
      <rect x="958" y="591" clip-path="url(#clipPath2)" fill="rgb(255,204,0)" width="151" height="26" stroke="none"/>
      <rect x="957" y="590" clip-path="url(#clipPath2)" fill="yellow" width="1" height="28" stroke="none"/>
      <rect x="958" y="590" clip-path="url(#clipPath2)" fill="yellow" width="151" height="1" stroke="none"/>
      <rect x="958" y="617" clip-path="url(#clipPath2)" fill="rgb(178,142,0)" width="152" height="1" stroke="none"/>
      <rect x="1109" y="590" clip-path="url(#clipPath2)" fill="rgb(178,142,0)" width="1" height="27" stroke="none"/>
    </g>
    <g font-size="13px" stroke-linecap="butt" transform="matrix(1,0,0,1,-249,-228)" text-rendering="geometricPrecision" font-family="sans-serif" shape-rendering="geometricPrecision" font-weight="bold" stroke-miterlimit="1.45">
      <text x="972.3279" xml:space="preserve" y="608.897" clip-path="url(#clipPath14)" stroke="none">NamespaceSymbol</text>
    </g>
    <g fill="rgb(255,204,0)" text-rendering="geometricPrecision" shape-rendering="geometricPrecision" transform="matrix(1,0,0,1,-249,-228)" stroke="rgb(255,204,0)">
      <rect x="818" width="111" height="26" y="591" clip-path="url(#clipPath2)" stroke="none"/>
      <rect x="817" y="590" clip-path="url(#clipPath2)" fill="yellow" width="1" height="28" stroke="none"/>
      <rect x="818" y="590" clip-path="url(#clipPath2)" fill="yellow" width="111" height="1" stroke="none"/>
      <rect x="818" y="617" clip-path="url(#clipPath2)" fill="rgb(178,142,0)" width="112" height="1" stroke="none"/>
      <rect x="929" y="590" clip-path="url(#clipPath2)" fill="rgb(178,142,0)" width="1" height="27" stroke="none"/>
    </g>
    <g font-size="13px" stroke-linecap="butt" transform="matrix(1,0,0,1,-249,-228)" text-rendering="geometricPrecision" font-family="sans-serif" shape-rendering="geometricPrecision" font-weight="bold" stroke-miterlimit="1.45">
      <text x="831.9714" xml:space="preserve" y="608.897" clip-path="url(#clipPath15)" stroke="none">BlockSymbol</text>
    </g>
    <g fill="rgb(255,204,0)" text-rendering="geometricPrecision" shape-rendering="geometricPrecision" transform="matrix(1,0,0,1,-249,-228)" stroke="rgb(255,204,0)">
      <rect x="479" width="151" height="26" y="759" clip-path="url(#clipPath2)" stroke="none"/>
      <rect x="478" y="758" clip-path="url(#clipPath2)" fill="yellow" width="1" height="28" stroke="none"/>
      <rect x="479" y="758" clip-path="url(#clipPath2)" fill="yellow" width="151" height="1" stroke="none"/>
      <rect x="479" y="785" clip-path="url(#clipPath2)" fill="rgb(178,142,0)" width="152" height="1" stroke="none"/>
      <rect x="630" y="758" clip-path="url(#clipPath2)" fill="rgb(178,142,0)" width="1" height="27" stroke="none"/>
    </g>
    <g font-size="13px" stroke-linecap="butt" transform="matrix(1,0,0,1,-249,-228)" text-rendering="geometricPrecision" font-family="sans-serif" shape-rendering="geometricPrecision" font-weight="bold" stroke-miterlimit="1.45">
      <text x="495.9935" xml:space="preserve" y="776.897" clip-path="url(#clipPath16)" stroke="none">ParameterSymbol</text>
    </g>
    <g fill="rgb(255,204,0)" text-rendering="geometricPrecision" shape-rendering="geometricPrecision" transform="matrix(1,0,0,1,-249,-228)" stroke="rgb(255,204,0)">
      <rect x="1115" width="170" height="53" y="632" clip-path="url(#clipPath2)" stroke="none"/>
      <rect x="1114" y="631" clip-path="url(#clipPath2)" fill="yellow" width="1" height="55" stroke="none"/>
      <rect x="1115" y="631" clip-path="url(#clipPath2)" fill="yellow" width="170" height="1" stroke="none"/>
      <rect x="1115" y="685" clip-path="url(#clipPath2)" fill="rgb(178,142,0)" width="171" height="1" stroke="none"/>
      <rect x="1285" y="631" clip-path="url(#clipPath2)" fill="rgb(178,142,0)" width="1" height="54" stroke="none"/>
    </g>
    <g font-size="13px" stroke-linecap="butt" transform="matrix(1,0,0,1,-249,-228)" text-rendering="geometricPrecision" font-family="sans-serif" shape-rendering="geometricPrecision" font-weight="bold" stroke-miterlimit="1.45">
      <text x="1151.016" xml:space="preserve" y="649.897" clip-path="url(#clipPath17)" stroke="none">MethodSymbol</text>
    </g>
    <g text-rendering="geometricPrecision" shape-rendering="geometricPrecision" transform="matrix(1,0,0,1,-249,-228)">
      <line y2="658" fill="none" x1="1115" clip-path="url(#clipPath17)" x2="1285" y1="658"/>
      <text stroke-linecap="butt" x="1119" y="676.5341" clip-path="url(#clipPath17)" font-family="sans-serif" stroke="none" stroke-miterlimit="1.45" xml:space="preserve">methodFlags : MethodFlags</text>
      <line y2="685" fill="none" x1="1115" clip-path="url(#clipPath17)" x2="1285" y1="685"/>
      <rect x="265" y="759" clip-path="url(#clipPath2)" fill="rgb(255,204,0)" width="182" height="67" stroke="none"/>
      <rect x="264" y="758" clip-path="url(#clipPath2)" fill="yellow" width="1" height="69" stroke="none"/>
      <rect x="265" y="758" clip-path="url(#clipPath2)" fill="yellow" width="182" height="1" stroke="none"/>
      <rect x="265" y="826" clip-path="url(#clipPath2)" fill="rgb(178,142,0)" width="183" height="1" stroke="none"/>
      <rect x="447" y="758" clip-path="url(#clipPath2)" fill="rgb(178,142,0)" width="1" height="68" stroke="none"/>
    </g>
    <g font-size="13px" stroke-linecap="butt" transform="matrix(1,0,0,1,-249,-228)" text-rendering="geometricPrecision" font-family="sans-serif" shape-rendering="geometricPrecision" font-weight="bold" stroke-miterlimit="1.45">
      <text x="316.727" xml:space="preserve" y="776.897" clip-path="url(#clipPath18)" stroke="none">FieldSymbol</text>
    </g>
    <g text-rendering="geometricPrecision" shape-rendering="geometricPrecision" transform="matrix(1,0,0,1,-249,-228)">
      <line y2="785" fill="none" x1="265" clip-path="url(#clipPath18)" x2="447" y1="785"/>
      <text stroke-linecap="butt" x="269" y="803.5341" clip-path="url(#clipPath18)" font-family="sans-serif" stroke="none" stroke-miterlimit="1.45" xml:space="preserve">setter : MethodSymbol = None</text>
      <text stroke-linecap="butt" x="269" y="819.8782" clip-path="url(#clipPath18)" font-family="sans-serif" stroke="none" stroke-miterlimit="1.45" xml:space="preserve">getter: MethodSymbol = None</text>
      <line y2="828" fill="none" x1="265" clip-path="url(#clipPath18)" x2="447" y1="828"/>
      <rect x="1096" y="304" clip-path="url(#clipPath2)" fill="rgb(0,204,255)" width="98" height="26" stroke="none"/>
      <rect x="1095" y="303" clip-path="url(#clipPath2)" fill="aqua" width="1" height="28" stroke="none"/>
      <rect x="1096" y="303" clip-path="url(#clipPath2)" fill="aqua" width="98" height="1" stroke="none"/>
      <rect x="1096" y="330" clip-path="url(#clipPath2)" fill="rgb(0,142,178)" width="99" height="1" stroke="none"/>
      <rect x="1194" y="303" clip-path="url(#clipPath2)" fill="rgb(0,142,178)" width="1" height="27" stroke="none"/>
    </g>
    <g font-size="13px" stroke-linecap="butt" transform="matrix(1,0,0,1,-249,-228)" text-rendering="geometricPrecision" font-family="sans-serif" shape-rendering="geometricPrecision" font-weight="bold" stroke-miterlimit="1.45">
      <text x="1112.5714" xml:space="preserve" y="322.397" clip-path="url(#clipPath19)" stroke="none">ParseTree</text>
    </g>
    <g fill="rgb(0,204,255)" text-rendering="geometricPrecision" shape-rendering="geometricPrecision" transform="matrix(1,0,0,1,-249,-228)" stroke="rgb(0,204,255)">
      <rect x="1431" width="98" height="26" y="507" clip-path="url(#clipPath2)" stroke="none"/>
      <rect x="1430" y="506" clip-path="url(#clipPath2)" fill="aqua" width="1" height="28" stroke="none"/>
      <rect x="1431" y="506" clip-path="url(#clipPath2)" fill="aqua" width="98" height="1" stroke="none"/>
      <rect x="1431" y="533" clip-path="url(#clipPath2)" fill="rgb(0,142,178)" width="99" height="1" stroke="none"/>
      <rect x="1529" y="506" clip-path="url(#clipPath2)" fill="rgb(0,142,178)" width="1" height="27" stroke="none"/>
    </g>
    <g font-size="13px" stroke-linecap="butt" transform="matrix(1,0,0,1,-249,-228)" text-rendering="geometricPrecision" font-family="sans-serif" shape-rendering="geometricPrecision" font-weight="bold" stroke-miterlimit="1.45">
      <text x="1464.582" xml:space="preserve" y="524.897" clip-path="url(#clipPath20)" stroke="none">Type</text>
      <path fill="none" d="M791 439.9891 L791 397.5408" clip-path="url(#clipPath2)"/>
    </g>
    <g stroke-linecap="butt" transform="matrix(1,0,0,1,-249,-228)" fill="white" text-rendering="geometricPrecision" shape-rendering="geometricPrecision" stroke="white" stroke-miterlimit="1.45">
      <path d="M791 382.5408 L785 398.5408 L797 398.5408 Z" stroke="none" clip-path="url(#clipPath2)"/>
      <path fill="none" d="M791 382.5408 L785 398.5408 L797 398.5408 Z" clip-path="url(#clipPath2)" stroke="black"/>
      <path fill="none" d="M857.5002 455.5 L918 455.5 L918 348 L850.5002 348" clip-path="url(#clipPath2)" stroke="black"/>
      <path fill="black" d="M850.5002 455.5 L857.5002 450.5 L864.5002 455.5 L857.5002 460.5 Z" clip-path="url(#clipPath2)" stroke="none"/>
      <text x="942.0447" y="409.156" clip-path="url(#clipPath2)" fill="black" font-family="sans-serif" stroke="none" xml:space="preserve">childSymbols</text>
      <text x="857.5" y="374.67" clip-path="url(#clipPath2)" fill="black" font-family="sans-serif" stroke="none" xml:space="preserve">0..*</text>
      <path fill="none" d="M466 439.9939 L466 412 L791 412 L791 397.5312" clip-path="url(#clipPath2)" stroke="black"/>
      <path d="M791 382.5312 L785 398.5312 L797 398.5312 Z" clip-path="url(#clipPath2)" stroke="none"/>
      <path fill="none" d="M791 382.5312 L785 398.5312 L797 398.5312 Z" clip-path="url(#clipPath2)" stroke="black"/>
      <path fill="none" d="M466 570.9747 L466 510.0107" clip-path="url(#clipPath2)" stroke="black"/>
      <path d="M466 495.0107 L460 511.0107 L472 511.0107 Z" clip-path="url(#clipPath2)" stroke="none"/>
      <path fill="none" d="M466 495.0107 L460 511.0107 L472 511.0107 Z" clip-path="url(#clipPath2)" stroke="black"/>
      <path fill="none" d="M410.3682 666.9949 L426.9239 648.2479" clip-path="url(#clipPath2)" stroke="black"/>
      <path d="M436.8531 637.0046 L421.7646 645.0258 L430.7592 652.9692 Z" clip-path="url(#clipPath2)" stroke="none"/>
      <path fill="none" d="M436.8531 637.0046 L421.7646 645.0258 L430.7592 652.9692 Z" clip-path="url(#clipPath2)" stroke="black"/>
      <path fill="none" d="M527.6 666.9921 L508.7613 647.7276" clip-path="url(#clipPath2)" stroke="black"/>
      <path d="M498.2738 637.0032 L505.1707 652.6375 L513.7502 644.2476 Z" clip-path="url(#clipPath2)" stroke="none"/>
      <path fill="none" d="M498.2738 637.0032 L505.1707 652.6375 L513.7502 644.2476 Z" clip-path="url(#clipPath2)" stroke="black"/>
      <path fill="none" d="M615 440.0137 L615 412 L791 412 L791 397.5312" clip-path="url(#clipPath2)" stroke="black"/>
      <path d="M791 382.5312 L785 398.5312 L797 398.5312 Z" clip-path="url(#clipPath2)" stroke="none"/>
      <path fill="none" d="M791 382.5312 L785 398.5312 L797 398.5312 Z" clip-path="url(#clipPath2)" stroke="black"/>
      <path fill="none" d="M317 439.9939 L317 412 L791 412 L791 397.5312" clip-path="url(#clipPath2)" stroke="black"/>
      <path d="M791 382.5312 L785 398.5312 L797 398.5312 Z" clip-path="url(#clipPath2)" stroke="none"/>
      <path fill="none" d="M791 382.5312 L785 398.5312 L797 398.5312 Z" clip-path="url(#clipPath2)" stroke="black"/>
      <path fill="none" d="M1200 505.9844 L1200 496 L791 496 L791 485.9644" clip-path="url(#clipPath2)" stroke="black"/>
      <path d="M791 470.9644 L785 486.9644 L797 486.9644 Z" clip-path="url(#clipPath2)" stroke="none"/>
      <path fill="none" d="M791 470.9644 L785 486.9644 L797 486.9644 Z" clip-path="url(#clipPath2)" stroke="black"/>
      <path fill="none" d="M791 506.0159 L791 486.0396" clip-path="url(#clipPath2)" stroke="black"/>
      <path d="M791 471.0396 L785 487.0396 L797 487.0396 Z" clip-path="url(#clipPath2)" stroke="none"/>
      <path fill="none" d="M791 471.0396 L785 487.0396 L797 487.0396 Z" clip-path="url(#clipPath2)" stroke="black"/>
      <path fill="none" d="M611 505.9976 L611 496 L791 496 L791 485.9644" clip-path="url(#clipPath2)" stroke="black"/>
      <path d="M791 470.9644 L785 486.9644 L797 486.9644 Z" clip-path="url(#clipPath2)" stroke="none"/>
      <path fill="none" d="M791 470.9644 L785 486.9644 L797 486.9644 Z" clip-path="url(#clipPath2)" stroke="black"/>
      <path fill="none" d="M1034 589.999 L1034 496 L791 496 L791 485.9644" clip-path="url(#clipPath2)" stroke="black"/>
      <path d="M791 470.9644 L785 486.9644 L797 486.9644 Z" clip-path="url(#clipPath2)" stroke="none"/>
      <path fill="none" d="M791 470.9644 L785 486.9644 L797 486.9644 Z" clip-path="url(#clipPath2)" stroke="black"/>
      <path fill="none" d="M873.5 589.999 L873.5 496 L791 496 L791 485.9644" clip-path="url(#clipPath2)" stroke="black"/>
      <path d="M791 470.9644 L785 486.9644 L797 486.9644 Z" clip-path="url(#clipPath2)" stroke="none"/>
      <path fill="none" d="M791 470.9644 L785 486.9644 L797 486.9644 Z" clip-path="url(#clipPath2)" stroke="black"/>
      <path fill="none" d="M554.5 758.0364 L554.5 737.0179" clip-path="url(#clipPath2)" stroke="black"/>
      <path d="M554.5 722.0179 L548.5 738.0179 L560.5 738.0179 Z" clip-path="url(#clipPath2)" stroke="none"/>
      <path fill="none" d="M554.5 722.0179 L548.5 738.0179 L560.5 738.0179 Z" clip-path="url(#clipPath2)" stroke="black"/>
      <path fill="none" d="M1200 631.0096 L1200 549.0117" clip-path="url(#clipPath2)" stroke="black"/>
      <path d="M1200 534.0117 L1194 550.0117 L1206 550.0117 Z" clip-path="url(#clipPath2)" stroke="none"/>
      <path fill="none" d="M1200 534.0117 L1194 550.0117 L1206 550.0117 Z" clip-path="url(#clipPath2)" stroke="black"/>
      <path fill="none" d="M425.8578 758.011 L485.3657 728.6318" clip-path="url(#clipPath2)" stroke="black"/>
      <path d="M498.8158 721.9915 L481.8128 723.6945 L487.1251 734.4546 Z" clip-path="url(#clipPath2)" stroke="none"/>
      <path fill="none" d="M498.8158 721.9915 L481.8128 723.6945 L487.1251 734.4546 Z" clip-path="url(#clipPath2)" stroke="black"/>
      <path fill="none" d="M850.5323 317.5 L1086.9994 317.5" clip-path="url(#clipPath2)" stroke="black"/>
      <path fill="black" d="M1094.9994 317.5 L1082.9994 312.5 L1085.9994 317.5 L1082.9994 322.5 Z" clip-path="url(#clipPath2)" stroke="none"/>
      <text x="965.6959" y="352.156" clip-path="url(#clipPath2)" fill="black" font-family="sans-serif" stroke="none" xml:space="preserve">context</text>
      <path fill="none" d="M791 306.4688 L791 284 L1145 284 L1145 303.5308" clip-path="url(#clipPath2)" stroke="black"/>
      <path fill="black" d="M791 313.4688 L786 306.4688 L791 299.4688 L796 306.4688 Z" clip-path="url(#clipPath2)" stroke="none"/>
      <text x="929.8757" y="258.656" clip-path="url(#clipPath2)" fill="black" font-family="sans-serif" stroke="none" xml:space="preserve">configuration</text>
      <text x="1124" y="299.8281" clip-path="url(#clipPath2)" fill="black" font-family="sans-serif" stroke="none" xml:space="preserve">0..*</text>
      <path fill="none" d="M1259.5068 520 L1422.0176 520" clip-path="url(#clipPath2)" stroke="black"/>
      <path fill="black" d="M1430.0176 520 L1418.0176 515 L1421.0176 520 L1418.0176 525 Z" clip-path="url(#clipPath2)" stroke="none"/>
      <text x="1311.6078" y="513.156" clip-path="url(#clipPath2)" fill="black" font-family="sans-serif" stroke="none" xml:space="preserve">returnType</text>
    </g>
  </g>
</svg>
