<?xml version="1.0" encoding="UTF-8"?><svg xmlns="http://www.w3.org/2000/svg" xmlns:xlink="http://www.w3.org/1999/xlink" fill-opacity="1" color-rendering="auto" color-interpolation="auto" text-rendering="auto" stroke="black" stroke-linecap="square" width="899" stroke-miterlimit="10" shape-rendering="auto" stroke-opacity="1" fill="black" stroke-dasharray="none" font-weight="normal" stroke-width="1" height="401" font-family="'Dialog'" font-style="normal" stroke-linejoin="miter" font-size="12px" stroke-dashoffset="0" image-rendering="auto">
  <!--Generated by ySVG 2.5-->
  <defs id="genericDefs"/>
  <g>
    <defs id="defs1">
      <clipPath clipPathUnits="userSpaceOnUse" id="clipPath1">
        <path d="M0 0 L899 0 L899 401 L0 401 L0 0 Z"/>
      </clipPath>
      <clipPath clipPathUnits="userSpaceOnUse" id="clipPath2">
        <path d="M121 50 L1020 50 L1020 451 L121 451 L121 50 Z"/>
      </clipPath>
    </defs>
    <g fill="white" text-rendering="geometricPrecision" shape-rendering="geometricPrecision" transform="translate(-121,-50)" stroke="white">
      <rect x="121" width="899" height="401" y="50" clip-path="url(#clipPath2)" stroke="none"/>
    </g>
    <g fill="rgb(255,204,0)" text-rendering="geometricPrecision" shape-rendering="geometricPrecision" transform="matrix(1,0,0,1,-121,-50)" stroke="rgb(255,204,0)">
      <rect x="136" width="30" height="30" y="153" clip-path="url(#clipPath2)" stroke="none"/>
    </g>
    <g text-rendering="geometricPrecision" stroke-miterlimit="1.45" shape-rendering="geometricPrecision" transform="matrix(1,0,0,1,-121,-50)" stroke-linecap="butt">
      <rect fill="none" x="136" width="30" height="30" y="153" clip-path="url(#clipPath2)"/>
      <text x="140.5234" xml:space="preserve" y="172.1543" clip-path="url(#clipPath2)" font-family="sans-serif" stroke="none">File</text>
    </g>
    <g fill="rgb(255,204,0)" text-rendering="geometricPrecision" shape-rendering="geometricPrecision" transform="matrix(1,0,0,1,-121,-50)" stroke="rgb(255,204,0)">
      <rect x="259" width="64" height="30" y="153" clip-path="url(#clipPath2)" stroke="none"/>
    </g>
    <g text-rendering="geometricPrecision" stroke-miterlimit="1.45" shape-rendering="geometricPrecision" transform="matrix(1,0,0,1,-121,-50)" stroke-linecap="butt">
      <rect fill="none" x="259" width="64" height="30" y="153" clip-path="url(#clipPath2)"/>
      <text x="269.5693" xml:space="preserve" y="172.1543" clip-path="url(#clipPath2)" font-family="sans-serif" stroke="none">Tokens</text>
    </g>
    <g fill="rgb(255,204,0)" text-rendering="geometricPrecision" shape-rendering="geometricPrecision" transform="matrix(1,0,0,1,-121,-50)" stroke="rgb(255,204,0)">
      <rect x="409" width="44" height="30" y="153" clip-path="url(#clipPath2)" stroke="none"/>
    </g>
    <g text-rendering="geometricPrecision" stroke-miterlimit="1.45" shape-rendering="geometricPrecision" transform="matrix(1,0,0,1,-121,-50)" stroke-linecap="butt">
      <rect fill="none" x="409" width="44" height="30" y="153" clip-path="url(#clipPath2)"/>
      <text x="419.4219" xml:space="preserve" y="172.1543" clip-path="url(#clipPath2)" font-family="sans-serif" stroke="none">AST</text>
    </g>
    <g fill="rgb(255,204,0)" text-rendering="geometricPrecision" shape-rendering="geometricPrecision" transform="matrix(1,0,0,1,-121,-50)" stroke="rgb(255,204,0)">
      <rect x="581" width="148" height="30" y="153" clip-path="url(#clipPath2)" stroke="none"/>
    </g>
    <g text-rendering="geometricPrecision" stroke-miterlimit="1.45" shape-rendering="geometricPrecision" transform="matrix(1,0,0,1,-121,-50)" stroke-linecap="butt">
      <rect fill="none" x="581" width="148" height="30" y="153" clip-path="url(#clipPath2)"/>
      <text x="596.2627" xml:space="preserve" y="172.1543" clip-path="url(#clipPath2)" font-family="sans-serif" stroke="none">Intermediate Model</text>
    </g>
    <g fill="rgb(255,204,0)" text-rendering="geometricPrecision" shape-rendering="geometricPrecision" transform="matrix(1,0,0,1,-121,-50)" stroke="rgb(255,204,0)">
      <rect x="857" width="148" height="30" y="153" clip-path="url(#clipPath2)" stroke="none"/>
    </g>
    <g text-rendering="geometricPrecision" stroke-miterlimit="1.45" shape-rendering="geometricPrecision" transform="matrix(1,0,0,1,-121,-50)" stroke-linecap="butt">
      <rect fill="none" x="857" width="148" height="30" y="153" clip-path="url(#clipPath2)"/>
      <text x="872.2627" xml:space="preserve" y="172.1543" clip-path="url(#clipPath2)" font-family="sans-serif" stroke="none">Intermediate Model</text>
    </g>
    <g fill="rgb(255,204,0)" text-rendering="geometricPrecision" shape-rendering="geometricPrecision" transform="matrix(1,0,0,1,-121,-50)" stroke="rgb(255,204,0)">
      <rect x="470" width="94" height="30" y="65" clip-path="url(#clipPath2)" stroke="none"/>
    </g>
    <g text-rendering="geometricPrecision" stroke-miterlimit="1.45" shape-rendering="geometricPrecision" transform="matrix(1,0,0,1,-121,-50)" stroke-linecap="butt">
      <rect fill="none" x="470" width="94" height="30" y="65" clip-path="url(#clipPath2)"/>
      <text x="480.2148" xml:space="preserve" y="84.1543" clip-path="url(#clipPath2)" font-family="sans-serif" stroke="none">Dictionary A</text>
    </g>
    <g fill="rgb(255,204,0)" text-rendering="geometricPrecision" shape-rendering="geometricPrecision" transform="matrix(1,0,0,1,-121,-50)" stroke="rgb(255,204,0)">
      <circle r="15" clip-path="url(#clipPath2)" cx="211" cy="168" stroke="none"/>
    </g>
    <g text-rendering="geometricPrecision" stroke-miterlimit="1.45" shape-rendering="geometricPrecision" transform="matrix(1,0,0,1,-121,-50)" stroke-linecap="butt">
      <circle fill="none" r="15" clip-path="url(#clipPath2)" cx="211" cy="168"/>
      <text x="195.9326" xml:space="preserve" y="200.1387" clip-path="url(#clipPath2)" font-family="sans-serif" stroke="none">lexer</text>
    </g>
    <g fill="rgb(255,204,0)" text-rendering="geometricPrecision" shape-rendering="geometricPrecision" transform="matrix(1,0,0,1,-121,-50)" stroke="rgb(255,204,0)">
      <circle r="15" clip-path="url(#clipPath2)" cx="366" cy="168" stroke="none"/>
    </g>
    <g text-rendering="geometricPrecision" stroke-miterlimit="1.45" shape-rendering="geometricPrecision" transform="matrix(1,0,0,1,-121,-50)" stroke-linecap="butt">
      <circle fill="none" r="15" clip-path="url(#clipPath2)" cx="366" cy="168"/>
      <text x="346.7637" xml:space="preserve" y="200.1387" clip-path="url(#clipPath2)" font-family="sans-serif" stroke="none">parser</text>
    </g>
    <g fill="rgb(255,204,0)" text-rendering="geometricPrecision" shape-rendering="geometricPrecision" transform="matrix(1,0,0,1,-121,-50)" stroke="rgb(255,204,0)">
      <circle r="15" clip-path="url(#clipPath2)" cx="517" cy="168" stroke="none"/>
    </g>
    <g text-rendering="geometricPrecision" stroke-miterlimit="1.45" shape-rendering="geometricPrecision" transform="matrix(1,0,0,1,-121,-50)" stroke-linecap="butt">
      <circle fill="none" r="15" clip-path="url(#clipPath2)" cx="517" cy="168"/>
      <text x="472.3574" xml:space="preserve" y="206.1699" clip-path="url(#clipPath2)" font-family="sans-serif" stroke="none">Create Objects</text>
      <text x="482.1309" xml:space="preserve" y="220.1387" clip-path="url(#clipPath2)" font-family="sans-serif" stroke="none">4 AST Node</text>
    </g>
    <g fill="rgb(255,204,0)" text-rendering="geometricPrecision" shape-rendering="geometricPrecision" transform="matrix(1,0,0,1,-121,-50)" stroke="rgb(255,204,0)">
      <circle r="15" clip-path="url(#clipPath2)" cx="793" cy="168" stroke="none"/>
    </g>
    <g text-rendering="geometricPrecision" stroke-miterlimit="1.45" shape-rendering="geometricPrecision" transform="matrix(1,0,0,1,-121,-50)" stroke-linecap="butt">
      <circle fill="none" r="15" clip-path="url(#clipPath2)" cx="793" cy="168"/>
      <text x="745.0645" xml:space="preserve" y="212.1543" clip-path="url(#clipPath2)" font-family="sans-serif" stroke="none">Link References</text>
    </g>
    <g fill="rgb(153,204,255)" text-rendering="geometricPrecision" shape-rendering="geometricPrecision" transform="matrix(1,0,0,1,-121,-50)" stroke="rgb(153,204,255)">
      <circle r="15" clip-path="url(#clipPath2)" cx="274" cy="324" stroke="none"/>
    </g>
    <g text-rendering="geometricPrecision" stroke-miterlimit="1.45" shape-rendering="geometricPrecision" transform="matrix(1,0,0,1,-121,-50)" stroke-linecap="butt">
      <circle fill="none" r="15" clip-path="url(#clipPath2)" cx="274" cy="324"/>
      <text x="254.2305" xml:space="preserve" y="363.1543" clip-path="url(#clipPath2)" font-family="sans-serif" stroke="none">ANTLR</text>
    </g>
    <g fill="rgb(153,204,255)" text-rendering="geometricPrecision" shape-rendering="geometricPrecision" transform="matrix(1,0,0,1,-121,-50)" stroke="rgb(153,204,255)">
      <rect x="219" width="110" height="30" y="405" clip-path="url(#clipPath2)" stroke="none"/>
    </g>
    <g text-rendering="geometricPrecision" stroke-miterlimit="1.45" shape-rendering="geometricPrecision" transform="matrix(1,0,0,1,-121,-50)" stroke-linecap="butt">
      <rect fill="none" x="219" width="110" height="30" y="405" clip-path="url(#clipPath2)"/>
      <text x="232.9756" xml:space="preserve" y="424.1543" clip-path="url(#clipPath2)" font-family="sans-serif" stroke="none">Grammer File</text>
    </g>
    <g fill="rgb(153,204,255)" text-rendering="geometricPrecision" shape-rendering="geometricPrecision" transform="matrix(1,0,0,1,-121,-50)" stroke="rgb(153,204,255)">
      <rect x="600" width="110" height="30" y="405" clip-path="url(#clipPath2)" stroke="none"/>
    </g>
    <g text-rendering="geometricPrecision" stroke-miterlimit="1.45" shape-rendering="geometricPrecision" transform="matrix(1,0,0,1,-121,-50)" stroke-linecap="butt">
      <rect fill="none" x="600" width="110" height="30" y="405" clip-path="url(#clipPath2)"/>
      <text x="616.1846" xml:space="preserve" y="417.1699" clip-path="url(#clipPath2)" font-family="sans-serif" stroke="none">Intermediate</text>
      <text x="621.4199" xml:space="preserve" y="431.1387" clip-path="url(#clipPath2)" font-family="sans-serif" stroke="none">Metamodel</text>
    </g>
    <g fill="rgb(153,204,255)" text-rendering="geometricPrecision" shape-rendering="geometricPrecision" transform="matrix(1,0,0,1,-121,-50)" stroke="rgb(153,204,255)">
      <circle r="15" clip-path="url(#clipPath2)" cx="431" cy="420" stroke="none"/>
    </g>
    <g text-rendering="geometricPrecision" stroke-miterlimit="1.45" shape-rendering="geometricPrecision" transform="matrix(1,0,0,1,-121,-50)" stroke-linecap="butt">
      <circle fill="none" r="15" clip-path="url(#clipPath2)" cx="431" cy="420"/>
      <path fill="none" d="M166 168 L188 168" clip-path="url(#clipPath2)"/>
      <path d="M196 168 L184 163 L187 168 L184 173 Z" clip-path="url(#clipPath2)" stroke="none"/>
      <path fill="none" d="M226 168 L251 168" clip-path="url(#clipPath2)"/>
      <path d="M259 168 L247 163 L250 168 L247 173 Z" clip-path="url(#clipPath2)" stroke="none"/>
      <path fill="none" d="M323 168 L343 168" clip-path="url(#clipPath2)"/>
      <path d="M351 168 L339 163 L342 168 L339 173 Z" clip-path="url(#clipPath2)" stroke="none"/>
      <path fill="none" d="M381 168 L401 168" clip-path="url(#clipPath2)"/>
      <path d="M409 168 L397 163 L400 168 L397 173 Z" clip-path="url(#clipPath2)" stroke="none"/>
      <path fill="none" d="M453 168 L494 168" clip-path="url(#clipPath2)"/>
      <path d="M502 168 L490 163 L493 168 L490 173 Z" clip-path="url(#clipPath2)" stroke="none"/>
      <path fill="none" d="M532 168 L573 168" clip-path="url(#clipPath2)"/>
      <path d="M581 168 L569 163 L572 168 L569 173 Z" clip-path="url(#clipPath2)" stroke="none"/>
      <path fill="none" d="M517 153 L517 103" clip-path="url(#clipPath2)"/>
      <path d="M517 95 L512 107 L517 104 L522 107 Z" clip-path="url(#clipPath2)" stroke="none"/>
      <path fill="none" d="M729 168 L770 168" clip-path="url(#clipPath2)"/>
      <path d="M778 168 L766 163 L769 168 L766 173 Z" clip-path="url(#clipPath2)" stroke="none"/>
      <path fill="none" d="M564 80 L793 80 L793 145" clip-path="url(#clipPath2)"/>
      <path d="M793 153 L798 141 L793 144 L788 141 Z" clip-path="url(#clipPath2)" stroke="none"/>
      <path fill="none" d="M808 168 L849 168" clip-path="url(#clipPath2)"/>
      <path d="M857 168 L845 163 L848 168 L845 173 Z" clip-path="url(#clipPath2)" stroke="none"/>
      <path fill="none" d="M268.3831 310.0914 L219.6127 189.3266" clip-path="url(#clipPath2)"/>
      <path d="M216.6169 181.9086 L216.4743 194.9079 L219.9871 190.2538 L225.7467 191.1632 Z" clip-path="url(#clipPath2)" stroke="none"/>
      <path fill="none" d="M281.6198 311.0795 L354.3163 187.8114" clip-path="url(#clipPath2)"/>
      <path d="M358.3802 180.9205 L347.9776 188.717 L353.8083 188.6728 L356.5912 193.7968 Z" clip-path="url(#clipPath2)" stroke="none"/>
      <path fill="none" d="M274 405 L274 347" clip-path="url(#clipPath2)"/>
      <path d="M274 339 L269 351 L274 348 L279 351 Z" clip-path="url(#clipPath2)" stroke="none"/>
      <path fill="none" stroke-dasharray="6,2" d="M655 183 L655 390" clip-path="url(#clipPath2)"/>
      <path fill="white" stroke-dasharray="6,2" d="M655 405 L661 389 L649 389 Z" clip-path="url(#clipPath2)" stroke="none"/>
      <path fill="none" d="M655 405 L661 389 L649 389 Z" clip-path="url(#clipPath2)"/>
      <path fill="none" stroke-dasharray="6,2" d="M931 183 L931 308 L655 308 L655 390" clip-path="url(#clipPath2)"/>
      <path fill="white" stroke-dasharray="6,2" d="M655 405 L661 389 L649 389 Z" clip-path="url(#clipPath2)" stroke="none"/>
      <path fill="none" d="M655 405 L661 389 L649 389 Z" clip-path="url(#clipPath2)"/>
      <path fill="none" d="M329 420 L408 420" clip-path="url(#clipPath2)"/>
      <path d="M416 420 L404 415 L407 420 L404 425 Z" clip-path="url(#clipPath2)" stroke="none"/>
      <path fill="none" d="M446 420 L592 420" clip-path="url(#clipPath2)"/>
      <path d="M600 420 L588 415 L591 420 L588 425 Z" clip-path="url(#clipPath2)" stroke="none"/>
    </g>
  </g>
</svg>
